<?xml version="1.0" encoding="utf-8"?>
<!-- Generator: Adobe Illustrator 27.2.0, SVG Export Plug-In . SVG Version: 6.00 Build 0)  -->
<svg version="1.1" id="Capa_1" xmlns="http://www.w3.org/2000/svg" xmlns:xlink="http://www.w3.org/1999/xlink" x="0px" y="0px"
	 viewBox="0 0 160 160" style="enable-background:new 0 0 160 160;" xml:space="preserve">
<style type="text/css">
	.st0{fill:#E11F2E;}
	.st1{fill:#EFEEEE;}
</style>
<path class="st0" d="M145.2,160H14.8C6.6,160,0,153.4,0,145.2V14.8C0,6.6,6.6,0,14.8,0h130.5c8.2,0,14.8,6.6,14.8,14.8v130.5
	C160,153.4,153.4,160,145.2,160z"/>
<g>
	<path class="st1" d="M147.3,95c-8.3,0-15-6.7-15-15c0,8.3-6.7,15-15,15c8.3,0,15,6.7,15,15C132.4,101.7,139.1,95,147.3,95z"/>
	<path class="st1" d="M57.6,65c-8.3,0-15-6.7-15-15c0,8.3-6.7,15-15,15c8.3,0,15,6.7,15,15C42.6,71.7,49.3,65,57.6,65z"/>
	<path class="st1" d="M72.5,65c0-16.5-13.4-29.9-29.9-29.9C42.6,51.6,56,65,72.5,65z"/>
	<path class="st1" d="M72.5,65C56,65,42.6,78.4,42.6,95C59.1,95,72.5,81.6,72.5,65z"/>
	<path class="st1" d="M12.7,65C12.7,81.6,26.1,95,42.6,95C42.6,78.4,29.2,65,12.7,65z"/>
	<path class="st1" d="M102.4,35.1c-16.5,0-29.9,13.4-29.9,29.9C89,65,102.4,51.6,102.4,35.1z"/>
	<path class="st1" d="M132.4,65c-16.5,0-29.9,13.4-29.9,29.9C119,95,132.4,81.6,132.4,65z"/>
	<path class="st1" d="M72.5,65c0,16.5,13.4,29.9,29.9,29.9C102.4,78.4,89,65,72.5,65z"/>
	<path class="st1" d="M72.5,124.9c0-16.5-13.4-29.9-29.9-29.9C42.6,111.5,56,124.9,72.5,124.9z"/>
	<path class="st1" d="M42.6,95c-16.5,0-29.9,13.4-29.9,29.9C29.2,124.9,42.6,111.5,42.6,95z"/>
	<path class="st1" d="M132.4,124.9c0-16.5-13.4-29.9-29.9-29.9C102.4,111.5,115.8,124.9,132.4,124.9z"/>
	<path class="st1" d="M102.4,95c-16.5,0-29.9,13.4-29.9,29.9C89,124.9,102.4,111.5,102.4,95z"/>
</g>
</svg>
