<?xml version="1.0" encoding="utf-8"?>
<!-- Generator: Adobe Illustrator 27.2.0, SVG Export Plug-In . SVG Version: 6.00 Build 0)  -->
<svg version="1.1" id="Capa_1" xmlns="http://www.w3.org/2000/svg" xmlns:xlink="http://www.w3.org/1999/xlink" x="0px" y="0px"
	 viewBox="0 0 160 160" style="enable-background:new 0 0 160 160;" xml:space="preserve">
<g>
	<path d="M114.3,26.9c3.1-2.4,6.9-5.2,10.5-8.3c2.7-2.3,4.8-2.1,7.1,0.5c2.7,3,5.6,5.9,8.5,8.8c2,1.9,2.3,3.5,0.4,5.8
		c-2.7,3.1-5,6.5-7.6,9.6c-1.2,1.5-1.3,2.6-0.5,4.4c2.5,5.3,4.6,10.7,6.7,16.1c0.7,1.9,1.4,2.9,3.6,3.1c3.9,0.3,7.8,0.9,11.8,1.3
		c2.9,0.3,4.4,1.6,4.4,4.6c0,4.6,0,9.2,0.1,13.8c0,3.3-2.6,3.4-4.8,3.7c-3.6,0.6-7.3,1-11,1.3c-2.4,0.2-3.5,1.2-4.1,3.6
		c-0.7,2.9-1.9,5.7-3.1,9.2c-4.4-4.2-8.5-7.9-12.2-11.9c-0.8-0.9-0.7-3.1-0.4-4.6c4.8-23.8-11.1-47.7-35-52.4
		c-23.3-4.6-45.9,9.8-52,33.1c-5.8,22.2,7.3,45.7,29.6,53c7.6,2.5,15.3,2.8,23,1.1c2.4-0.5,4.1-0.1,5.8,1.7c3.4,3.6,6.9,7.1,10.6,11
		c-3.3,1.1-6.3,2.4-9.5,3.2c-2.8,0.7-4,2.1-4.1,4.9c-0.3,3.9-1.1,7.8-1.4,11.7c-0.2,2.1-1.2,3-3.1,3c-5.1,0.1-10.2,0.1-15.3,0.2
		c-2.5,0-2.9-1.7-3.2-3.5c-0.6-4.2-1.2-8.3-1.6-12.5c-0.2-2-0.9-2.7-2.8-3.4c-5.5-2-10.7-4.5-16.2-6.5c-1.3-0.5-3.5-0.3-4.6,0.4
		c-3.4,2.2-6.5,4.9-9.7,7.5c-1.9,1.6-3.5,1.6-5.3-0.2c-3.2-3.3-6.4-6.6-9.7-9.7c-2-1.9-1.8-3.6-0.2-5.6c3.1-3.9,6.1-7.8,8.7-11.1
		c-2.7-7-5.1-13.5-7.8-19.9c-0.4-1-1.9-2-3-2.2c-4.1-0.7-8.3-1.1-12.5-1.6c-2.6-0.3-3.7-1.5-3.6-4.2c0.2-4.5,0.1-8.9,0-13.4
		c-0.1-2.5,0.9-3.7,3.4-4c3.9-0.3,7.8-0.9,11.8-1.3c2.4-0.2,3.7-1.2,4.5-3.7c2.1-6.1,4.7-12,7.3-18.5c-2.6-3.3-5.5-7.3-8.7-11.1
		c-1.8-2.2-1.7-3.9,0.3-5.9c3.1-3,6.1-6.1,9.1-9.3c1.8-1.9,3.5-2.1,5.6-0.4c4,3.2,8.1,6.2,11.4,8.8c6.8-2.7,13-5,19.2-7.6
		c1.1-0.5,2.4-1.8,2.6-2.9c0.9-4.4,1.4-8.8,1.9-13.2c0.3-2.3,1.4-3.2,3.8-3.2c4.7,0.1,9.4-0.1,14.1,0.2c1.2,0.1,2.9,1.6,3.2,2.7
		c0.9,4.3,1.4,8.8,1.8,13.2c0.2,2.1,1.2,2.9,3.1,3.5C101.6,21.8,107.6,24.3,114.3,26.9z"/>
	<path d="M75.7,49.1c7.6,0.3,14.7,1.4,20.3,7.3c2.9,3,4.3,6.4,4.4,10.6c0.1,4.4-0.1,9,1,13.2c0.9,3.3,3,6.5,5.4,9.1
		c16.5,18.2,33.2,36.2,50,54.2c2.5,2.6,2.6,4.7,1.1,7.7c-2.3,4.5-6.1,7-10.8,8.5c-2.7,0.9-4.6-0.3-6.4-2.3
		c-13.2-14-26.4-28-39.6-41.9c-3-3.1-6.1-6.2-9.1-9.3c-3.4-3.4-7.6-5.5-12.3-5.2c-12,1-19.4-5.1-24.7-15c-1.1-2-2.4-4-3.1-6.1
		c-0.4-1.1-0.1-2.9,0.6-3.7c0.4-0.5,2.4-0.4,3.4,0.2c3.4,1.9,6.8,4,10,6.3c2.9,2.1,5.4,1.6,8-0.4c4.6-3.5,6.8-8.6,7.8-14
		c0.3-1.7-1.1-4.3-2.6-5.5c-3.4-2.9-7.3-5.1-10.9-7.7c-1.1-0.8-1.8-2-2.7-3c1.2-0.8,2.3-2,3.6-2.3C71.3,49.3,73.5,49.3,75.7,49.1z"
		/>
</g>
</svg>
