<?xml version="1.0" encoding="utf-8"?>
<!-- Generator: Adobe Illustrator 27.2.0, SVG Export Plug-In . SVG Version: 6.00 Build 0)  -->
<svg version="1.1" id="Capa_1" xmlns="http://www.w3.org/2000/svg" xmlns:xlink="http://www.w3.org/1999/xlink" x="0px" y="0px"
	 viewBox="0 0 160 160" style="enable-background:new 0 0 160 160;" xml:space="preserve">
<g>
	<path d="M113.8,0c6.4,2.3,12.1,5.5,14.5,12.4c1,3,1.6,6.2,1.6,9.3c0.1,20.5,0,41,0.2,61.5c0,2.3,0.8,4.9,2.1,6.8
		c17.8,26.9,3.6,62.3-27.9,69c-12.5,2.7-23.9-0.1-34.5-7c-1.7-1.1-4.1-1.8-6.2-1.9c-7.5-0.2-14.9-0.1-22.4-0.1
		c-12.4,0-21.1-8.6-21.1-21c0-25.5,0-50.9,0.1-76.4c0-1.5,0.8-3.4,1.9-4.5c15.2-15.4,30.6-30.7,45.9-46c0.7-0.7,1.2-1.4,1.8-2.1
		C84.4,0,99.1,0,113.8,0z M79.9,10c0,1.2,0,1.9,0,2.6c0,9.1,0.1,18.3-0.1,27.4c-0.3,11.2-9.2,19.8-20.4,19.8c-8.8,0-17.5,0-26.3,0
		c-1,0-2,0.1-3.1,0.2c0,23.8-0.1,47.3,0.1,70.7c0,5,3.5,8.7,8.4,9c6.3,0.4,12.7,0.1,19.2,0.1c-10.9-19.1-11-37.8,3.5-54.3
		c16.7-18.8,37.1-20,59-8.2c0-18.7,0-37,0-55.4c0-0.9,0-1.9-0.1-2.8c-0.5-5.2-3.7-9.1-8.6-9.2C101.1,9.8,90.7,10,79.9,10z
		 M94.9,150.1c18.5,0.2,34.9-15.7,35.3-34.3c0.3-19.2-15.6-35.7-34.8-35.9c-18.8-0.2-35.2,15.8-35.5,34.9
		C59.6,133.5,75.8,149.8,94.9,150.1z M70.1,15.1C58.4,26.8,46.8,38.4,35.1,50c7.7,0,15.6,0,23.5,0c7,0,11-3.4,11.4-10.4
		C70.5,31.4,70.1,23.2,70.1,15.1z"/>
	<path d="M119.8,119.9c-6.6,0-13,0-19.8,0c0,6.8,0,13.2,0,19.9c-3.4,0-6.4,0-9.8,0c0-6.5,0-12.9,0-19.8c-6.8,0-13.1,0-19.7,0
		c0-3.4,0-6.4,0-9.8c6.4,0,12.8,0,19.6,0c0-6.8,0-13.1,0-19.8c3.3,0,6.3,0,9.8,0c0,6.4,0,12.8,0,19.7c6.9,0,13.3,0,20,0
		C119.8,113.5,119.8,116.4,119.8,119.9z"/>
</g>
</svg>
