<?xml version="1.0" encoding="utf-8"?>
<!-- Generator: Adobe Illustrator 27.2.0, SVG Export Plug-In . SVG Version: 6.00 Build 0)  -->
<svg version="1.1" id="Capa_1" xmlns="http://www.w3.org/2000/svg" xmlns:xlink="http://www.w3.org/1999/xlink" x="0px" y="0px"
	 viewBox="0 0 160 160" style="enable-background:new 0 0 160 160;" xml:space="preserve">
<g>
	<path d="M42.1,96.9c0-3.5,0.1-7,0-10.4c-0.2-3.8,1.1-6.8,3.9-9.6C64,59,81.8,41.1,99.8,23.2c6-5.9,11.9-11.9,18.2-17.5
		c11.4-10.1,30.8-6.3,38.3,7.1c6.3,11.3,4.6,23.2-5,32.8c-23.1,23.2-46.3,46.4-69.5,69.4c-1.6,1.5-4.3,2.6-6.5,2.7
		c-8.1,0.3-16.2,0.2-24.2,0.1c-5.5-0.1-8.8-3.6-8.9-9.2C42.1,104.8,42.1,100.8,42.1,96.9z M58.9,101c3.7,0,6.8-0.2,9.9,0.1
		c2.6,0.2,4.3-0.8,6.1-2.6c15.1-15.3,30.3-30.5,45.5-45.8c0.7-0.7,1.3-1.5,1.6-1.7c-4.5-4.5-8.8-8.8-13.6-13.6
		c-16,16.2-32.3,32.7-48.6,49.2c-0.5,0.5-0.9,1.3-0.9,2C58.9,92.7,58.9,96.7,58.9,101z M134.8,38.2c1.9-1.9,3.9-3.8,5.7-5.7
		c3.4-3.6,3.5-8.8,0.2-12.5c-3.1-3.6-8.4-4.2-12.4-1.1c-2.5,1.9-4.6,4.2-6.7,6.1C126.1,29.4,130.4,33.7,134.8,38.2z"/>
	<path d="M64.3,159.7c-14,0-28.1,0.4-42.1-0.1c-11.3-0.4-21.7-10.9-21.9-22.1C0,113.1,0.1,88.7,0,64.4c0-2.5,0.2-4.9,0.2-7.4
		C0.4,45.7,11,34.4,23.5,33.8c3.5-0.1,7-0.2,10.4-0.1c4.7,0.2,8.3,4.1,8.2,8.6c-0.1,4.5-3.8,8.1-8.5,8.2c-2,0.1-4,0-6.1,0
		c-7.5,0-10.7,3.2-10.7,10.6c0,23.6,0,47.1,0,70.7c0,1.2,0.1,2.5,0.2,3.7c0.5,4.1,2.9,6.7,7,7.4c1.2,0.2,2.5,0.3,3.7,0.3
		c23.5,0,46.9,0,70.4,0c8.5,0,11.3-2.8,11.3-11.2c0-1.9-0.1-3.8,0-5.7c0.2-4.8,4-8.4,8.4-8.3c4.5,0.1,8.3,3.7,8.3,8.4
		c0.1,6.1,0.7,12.4-2,18.2c-5,10.7-13.6,15.5-25.2,15.5c-11.6,0-23.1,0-34.7,0C64.3,159.9,64.3,159.8,64.3,159.7z"/>
</g>
</svg>
