<?xml version="1.0" encoding="utf-8"?>
<!-- Generator: Adobe Illustrator 27.2.0, SVG Export Plug-In . SVG Version: 6.00 Build 0)  -->
<svg version="1.1" id="Capa_1" xmlns="http://www.w3.org/2000/svg" xmlns:xlink="http://www.w3.org/1999/xlink" x="0px" y="0px"
	 viewBox="0 0 160 160" style="enable-background:new 0 0 160 160;" xml:space="preserve">
<g>
	<path d="M11.4,79.9c9.5,10.5,20,19.2,32.2,26.4c-2.3,2-4.4,3.8-6.7,5.9c-13.7-8.4-26-19.2-36.7-32.4c2.8-3.1,5.4-6.3,8.3-9.2
		c13.6-13.9,28.7-25.3,47.2-32c18-6.5,35.7-5.7,54.2,2.6c-2.1,1.7-4.2,3.5-6.3,5c-0.5,0.4-1.6,0.4-2.3,0.2c-20-7-38.8-3.4-56.8,6.7
		C32,60.1,21.2,69.2,11.4,79.9z"/>
	<path d="M148.7,79.9c-9.5-10.5-20-19.2-32-26.3c2.1-2.2,4.1-4.2,6.1-6.3c14.2,8.8,26.6,19.5,37.1,32.5c-6,7.9-13,14.6-20.4,20.7
		c-13.1,10.8-27.3,19.4-44,23.2c-15.2,3.5-29.9,1.7-45.3-4.8c2.4-2,4.3-3.8,6.4-5.4c0.5-0.4,1.6-0.6,2.2-0.4
		c22.6,8,43.1,2.4,62.5-9.9C131.4,96.9,140.4,89.1,148.7,79.9z"/>
	<path d="M133.3,31.5c-1.1,1.5-1.8,2.9-2.8,4C105.7,60.3,81,85,56.3,109.7c-6.8,6.8-13.5,13.6-20.3,20.3c-1.1,1.1-2.6,2.3-3.9,2.3
		c-1.4,0-3.6-1.1-4-2.2c-0.5-1.5-0.1-3.9,0.9-5c4.1-4.5,8.5-8.8,12.8-13.1C69,85,96.1,57.9,123.2,30.7c1-1,1.8-2.3,3-2.7
		c1.3-0.5,3.2-0.6,4.4-0.1C131.7,28.5,132.3,30.1,133.3,31.5z"/>
	<path d="M93.5,56.1c-0.5,0.5-1,1.1-1.4,1.6c-2.4,3-4.8,4.3-9.2,3.4c-13.1-2.5-24.6,9.9-21.4,22.7c0.7,2.9,0.3,4.7-1.9,6.5
		c-1.1,0.9-1.9,2.2-2.9,3.4c-6.9-8.4-5.1-24.2,3.4-33C69,51.5,84.6,49.3,93.5,56.1z"/>
	<path d="M103.8,66.1c6.8,10.8,4.4,25.6-5.1,34.2c-9,8.2-23.9,9.8-32.6,3c1.9-1.6,3.6-3.3,5.5-4.8c0.6-0.5,1.7-0.6,2.5-0.4
		c15.9,3.8,28-8.2,24.2-24.1c-0.2-0.8,0-2.1,0.5-2.7C100.3,69.6,102,68,103.8,66.1z"/>
</g>
</svg>
