<?xml version="1.0" encoding="utf-8"?>
<!-- Generator: Adobe Illustrator 27.2.0, SVG Export Plug-In . SVG Version: 6.00 Build 0)  -->
<svg version="1.1" id="Capa_1" xmlns="http://www.w3.org/2000/svg" xmlns:xlink="http://www.w3.org/1999/xlink" x="0px" y="0px"
	 viewBox="0 0 160 160" style="enable-background:new 0 0 160 160;" xml:space="preserve">
<g>
	<path d="M0,80C-0.1,36.3,35.3,0,80,0c44.7,0,80.6,36.5,79.9,81.2c-0.6,43.3-35.8,78.3-79.1,78.8C36.2,160.5,0,124.4,0,80z M55,71.8
		c-0.2,0-0.3,0-0.5,0c-3.9,0.2-6.3,2.2-6.8,6.1c-0.3,2.3-0.4,4.7-0.4,7.1c0.1,7.6,0.3,15.2,0.3,22.8c0,2.5-0.1,5-0.1,7.5
		c0,4.1,3.3,6.9,6.9,6.9c17.1-0.1,34.2,0,51.2,0c0.4,0,0.9,0,1.3-0.1c3.4-0.7,5.6-3.5,5.6-6.9c0-11.8,0-23.6,0-35.4
		c0-0.8-0.1-1.7-0.2-2.5c-0.3-2.8-2.9-5-5.7-5.4c-0.3,0-0.6-0.1-1-0.1c0-0.3,0-0.6,0-0.9c0-2.7,0-5.3,0-8c-0.1-5.2-1.4-10-4.4-14.2
		c-3.6-5.1-8.3-8.7-14.6-10.2c-2.8-0.6-5.6-1.1-8.5-0.9c-4.7,0.4-8.9,2-12.6,4.8c-5.7,4.2-9.3,9.8-10.2,16.8
		c-0.4,2.8-0.2,5.7-0.3,8.5C55,69.2,55,70.5,55,71.8z"/>
	<path d="M66.1,71.8c0-3,0.1-5.9,0-8.9c-0.3-5.6,4.4-12.2,10.6-13.7c8.4-2.1,16.9,3.6,17.7,12.2c0.3,3.4,0.2,6.9,0.3,10.4
		C85.1,71.8,75.6,71.8,66.1,71.8z"/>
</g>
</svg>
