<?xml version="1.0" encoding="utf-8"?>
<!-- Generator: Adobe Illustrator 27.2.0, SVG Export Plug-In . SVG Version: 6.00 Build 0)  -->
<svg version="1.1" id="Capa_1" xmlns="http://www.w3.org/2000/svg" xmlns:xlink="http://www.w3.org/1999/xlink" x="0px" y="0px"
	 viewBox="0 0 160 160" style="enable-background:new 0 0 160 160;" xml:space="preserve">
<g>
	<path d="M8,51.7c7.2-17.2,14.3-34.1,21.5-51.5c0.7,0.8,1.2,1.3,1.6,1.8c2.1,2.8,4.3,5.5,6.3,8.4c1.1,1.5,2,1.7,3.6,0.7
		C53.9,3.9,67.8,0.4,82.6,0.9c35.3,1.3,65,25,74.2,59.1c3,11.3,3.4,22.7,1.4,34.2c-0.6,3.6-2.1,4.9-5.8,4.3c-3-0.4-6-1.1-8.9-2
		c-3.1-1-3.9-2.7-3.3-5.9c5.6-29.8-13.5-60.6-42.7-69c-15.6-4.5-30.7-3.2-45.2,4.2c-2.2,1.1-2.3,1.3-0.7,3.4c2.3,3,4.5,6,6.8,9
		c1.1,1.5,0.9,2-0.9,2.4c-15.9,3.7-31.8,7.4-47.7,11C9.3,51.8,8.8,51.7,8,51.7z"/>
	<path d="M151.9,108.8c-0.4,1-0.6,1.7-0.8,2.3c-6.5,15.6-13,31.2-19.6,46.8c-0.9,2.2-1.3,2.3-2.8,0.3c-2-2.7-4.1-5.3-6.1-8.1
		c-1-1.5-1.9-1.7-3.6-0.8c-13.4,7.7-27.9,11.3-43.4,10.2c-26.3-1.8-47.1-13.6-61.9-35.5C2,106.6-1.7,87.2,1.7,66.5
		c0.6-3.8,2-5.1,5.8-4.6c3.2,0.4,6.4,1.2,9.4,2.2c2.7,0.9,3.4,2.6,2.8,5.4c-6.2,32.9,16.9,65.6,50.1,70.9c13.3,2.1,26,0.2,38-5.9
		c2.1-1.1,2.1-1.2,0.7-3.1c-2.3-3.1-4.7-6.2-7-9.3c-1.1-1.4-0.9-1.9,0.8-2.3c15.8-3.7,31.6-7.3,47.4-11
		C150.3,108.8,150.9,108.8,151.9,108.8z"/>
</g>
</svg>
