<?xml version="1.0" encoding="utf-8"?>
<!-- Generator: Adobe Illustrator 27.2.0, SVG Export Plug-In . SVG Version: 6.00 Build 0)  -->
<svg version="1.1" id="Capa_1" xmlns="http://www.w3.org/2000/svg" xmlns:xlink="http://www.w3.org/1999/xlink" x="0px" y="0px"
	 viewBox="0 0 160 160" style="enable-background:new 0 0 160 160;" xml:space="preserve">
<g>
	<path d="M81.6,0c2.2,0.8,3.9,2.3,5.5,3.9c7.6,7.6,15.1,15.2,22.8,22.8c2,2,3.1,4.3,2.6,7.2c-0.6,2.9-2.3,4.9-5.1,5.8
		c-2.8,0.9-5.4,0.3-7.5-1.8c-3.6-3.6-7.2-7.2-10.8-10.8c-0.4-0.4-0.7-0.8-1-1.2c-0.1,0-0.3,0.1-0.4,0.1c0,0.6,0,1.1,0,1.7
		c0,26.4,0,52.8,0,79.2c0,4.1-2.1,7-5.7,7.9c-4.5,1.1-9-2.2-9.3-6.8c0-0.6,0-1.2,0-1.9c0-26.1,0-52.3,0-78.4c0-0.6,0-1.1,0-2
		c-0.6,0.5-1,0.9-1.3,1.2c-3.5,3.5-7.1,7.1-10.6,10.6c-3.3,3.2-7.8,3.3-10.9,0.3c-3-3-2.9-7.6,0.3-10.9c8.1-8.1,16.2-16.3,24.4-24.4
		c1.1-1.1,2.7-1.7,4-2.5C79.5,0,80.5,0,81.6,0z"/>
	<path d="M27.5,65c0,26.8,0,53.3,0,79.9c35,0,69.8,0,104.8,0c0-26.6,0-53.1,0-79.9c-0.5,0-1.1,0-1.6,0c-6.9,0-13.9,0-20.8,0
		c-3.8,0-6.8-2.7-7.4-6.3c-0.6-3.4,1.4-6.9,4.7-8.1c1-0.3,2-0.5,3-0.5c9,0,17.9,0,26.9,0c5.9,0,10.3,4.3,10.3,10.3
		c0,29.8,0,59.7,0,89.5c0,5.9-4.3,10.2-10.2,10.2c-38.2,0-76.5,0-114.7,0c-5.8,0-10.2-4.4-10.2-10.2c0-29.8,0-59.7,0-89.5
		c0-5.9,4.3-10.2,10.3-10.3c9,0,17.9,0,26.9,0c4.5,0,7.9,3.3,7.9,7.6c0,4.2-3.4,7.4-7.8,7.4c-6.8,0-13.5,0-20.3,0
		C28.8,65,28.2,65,27.5,65z"/>
</g>
</svg>
