<?xml version="1.0" encoding="utf-8"?>
<!-- Generator: Adobe Illustrator 27.2.0, SVG Export Plug-In . SVG Version: 6.00 Build 0)  -->
<svg version="1.1" id="Capa_1" xmlns="http://www.w3.org/2000/svg" xmlns:xlink="http://www.w3.org/1999/xlink" x="0px" y="0px"
	 viewBox="0 0 160 160" style="enable-background:new 0 0 160 160;" xml:space="preserve">
<g>
	<path d="M77.3,0.1c1.8,0,3.7,0,5.5,0c0.3,0.1,0.7,0.2,1,0.2c3.3,0.4,6.7,0.5,10,1.1c19,3.4,34.8,12.5,47.2,27.1
		c10.2,12,16.3,26,18.3,41.7c0.2,2,0.5,3.9,0.7,5.9c0,2.6,0,5.3,0,7.9c-0.1,0.3-0.2,0.7-0.2,1c-0.2,2-0.3,4.1-0.6,6.1
		c-2.7,18.8-10.9,34.9-25,47.7c-18.5,16.9-40.3,23.6-65.1,20.5C52,157,37,149.8,24.7,137.7C3.6,116.8-4.1,91.4,2.1,62.4
		C9.2,28.7,38.5,3.5,72.8,0.5C74.3,0.4,75.8,0.2,77.3,0.1z M80,144.9c35.3,0.1,64.3-28.4,64.9-63.8c0.6-36-28.3-65.3-63.8-65.9
		C44,14.6,15,44.9,15.1,80.1C15.2,115.9,44.2,144.9,80,144.9z"/>
	<path d="M52.9,39.1c6.2,0,12.3,0,18.5,0c0,27.3,0,54.5,0,81.8c-6.1,0-12.3,0-18.5,0C52.9,93.7,52.9,66.5,52.9,39.1z"/>
	<path d="M90.8,39.1c6.2,0,12.3,0,18.5,0c0,27.3,0,54.5,0,81.8c-6.1,0-12.3,0-18.5,0C90.8,93.7,90.8,66.5,90.8,39.1z"/>
</g>
</svg>
